<svg xmlns="http://www.w3.org/2000/svg" viewBox="0 0 103.74 95.47"><defs><style>.cls-1{fill:#3f61aa;stroke:#fff;stroke-miterlimit:10;}</style></defs><g id="Livello_2" data-name="Livello 2"><g id="Livello_1-2" data-name="Livello 1"><path class="cls-1" d="M68.21.5H35.53a35,35,0,0,0-35,35V60a35,35,0,0,0,35,35H68.21a35,35,0,0,0,35-35V35.52A35,35,0,0,0,68.21.5ZM66.75,80.4H34.67V22.25H23.13V80.4H15.05V15.08H84.11l-.16,9A24.23,24.23,0,0,0,72.05,21c-8.55,0-11.81,5.34-11.81,9.79,0,6.1,3.81,9.11,12.46,12.61,10.59,4.26,16,9.59,16,19.19C88.7,72.65,81.53,80.4,66.75,80.4Z"/><path class="cls-1" d="M80.41,63.25c0,6.58-4.83,11.14-13.1,11.14l-24.46,0V22.25h12a16.89,16.89,0,0,0-2.79,9.49c0,9.2,6.32,14.74,16.55,18.51C77.07,53.64,80.41,57.13,80.41,63.25Z"/></g></g></svg>