<svg width="132" height="133" viewBox="0 0 132 133" fill="none" xmlns="http://www.w3.org/2000/svg">
<path d="M129.143 73.6228H104.543C103.652 59.2153 92.5906 47.5559 78.48 45.8183C85.4629 41.5863 90.1614 33.9165 90.1614 25.1504C90.1614 11.8354 79.3677 1 66.1003 1C52.8329 1 42.0429 11.8354 42.0429 25.1504C42.0429 33.9202 46.7377 41.5863 53.7206 45.8183C39.61 47.5559 28.5489 59.2191 27.6574 73.6228H2.85714C1.832 73.6228 1 74.458 1 75.4871V94.7493C1 95.7784 1.832 96.6136 2.85714 96.6136H13.3797V129.862C13.3797 130.891 14.2117 131.726 15.2369 131.726H116.763C117.788 131.726 118.62 130.891 118.62 129.862V96.6136H129.143C130.168 96.6136 131 95.7784 131 94.7493V75.4871C131 74.458 130.168 73.6228 129.143 73.6228ZM45.7609 25.1504C45.7609 13.8899 54.8869 4.72864 66.104 4.72864C77.3249 4.72864 86.4509 13.8899 86.4509 25.1504C86.4509 36.4109 77.3249 45.5722 66.104 45.5722C54.8869 45.5722 45.7609 36.4109 45.7609 25.1504ZM57.368 49.3009H74.84C88.5977 49.3009 99.904 60.0505 100.859 73.6228H31.3457C32.3003 60.0505 43.6066 49.3009 57.368 49.3009ZM114.906 127.998H17.094V96.6136H114.906V127.998ZM127.286 92.885H116.763H15.2369H4.71429V77.3514H29.4217H102.779H127.286V92.885Z" fill="white" stroke="white"/>
</svg>
