<svg xmlns="http://www.w3.org/2000/svg" viewBox="0 0 93.55 81.04"><defs><style>.cls-1{fill:#3f61aa;}</style></defs><g id="Livello_2" data-name="Livello 2"><g id="Livello_1-2" data-name="Livello 1"><path class="cls-1" d="M93.55,58.92c0,12.5-9.1,22.12-27.88,22.12H35.31V73.61l31.07,0C76.89,73.58,83,67.93,83,59.76c0-7.58-4.25-11.91-15-16.12C55,39,47,32.1,47,20.68A20.6,20.6,0,0,1,50.56,8.9H35.31V81H24.92V8.9H10.27V81H0V0H87.73l-.21,11.18A31.3,31.3,0,0,0,72.4,7.33c-10.86,0-15,6.62-15,12.15,0,7.57,4.84,11.3,15.83,15.63C86.69,40.4,93.55,47,93.55,58.92Z"/></g></g></svg>