<svg xmlns="http://www.w3.org/2000/svg" viewBox="0 0 336.69 118.2"><defs><style>.cls-1{fill:#3f61aa;stroke:#fff;stroke-miterlimit:10;}.cls-2{fill:#fff;}</style></defs><g id="Livello_2" data-name="Livello 2"><g id="Livello_1-2" data-name="Livello 1"><rect class="cls-1" x="0.5" y="0.5" width="335.69" height="117.2" rx="44.48"/><path class="cls-2" d="M139.27,68.55,130.81,94H119.94L147.6,13.18h12.69L188.07,94H176.84l-8.7-25.41ZM166,60.4l-8-23.25c-1.81-5.27-3-10.07-4.23-14.74h-.24c-1.21,4.79-2.53,9.71-4.1,14.62l-8,23.37Z"/><path class="cls-2" d="M199.3,54.89c0-7.43-.24-13.42-.48-18.94h9.54l.48,9.95h.25c4.34-7.07,11.23-11.27,20.77-11.27,14.14,0,24.77,11.87,24.77,29.49,0,20.85-12.89,30.1-26.67,30.1-7.73,0-14.4-2.29-17.91-8h-.24V117.7H199.3Zm10.51,15.46a22.9,22.9,0,0,0,.49,4.32,16.17,16.17,0,0,0,15.94,12.12C237.47,86.79,244,77.9,244,64.6,244,53,237.84,43,226.6,43c-7.25,0-14,5.16-16.06,13.07a16.62,16.62,0,0,0-.73,4.31Z"/><path class="cls-2" d="M268,54.89c0-7.43-.24-13.42-.48-18.94h9.54l.48,9.95h.24c4.35-7.07,11.24-11.27,20.78-11.27,14.13,0,24.76,11.87,24.76,29.49,0,20.85-12.8,30.1-26.57,30.1-7.73,0-14.5-2.29-18-8h-.24V117.7H268Zm10.51,15.46a23.78,23.78,0,0,0,.48,4.32,16.19,16.19,0,0,0,16,12.12c11.23,0,17.75-8.89,17.75-22.19C312.72,53,306.56,43,295.33,43c-7.25,0-14,5.16-16.07,13.07a17,17,0,0,0-.72,4.31Z"/><path class="cls-2" d="M114.83,72.1c0,12.5-9.1,22.12-27.88,22.12H56.59V86.79l31.07,0c10.51,0,16.65-5.65,16.65-13.82,0-7.58-4.25-11.91-15-16.12-13-4.68-21-11.54-21-23a20.6,20.6,0,0,1,3.55-11.78H56.59V94.22H46.2V22.08H31.55V94.22H21.28v-81H109l-.21,11.18a31.3,31.3,0,0,0-15.12-3.85c-10.86,0-15,6.62-15,12.15,0,7.57,4.84,11.3,15.83,15.63C108,53.58,114.83,60.19,114.83,72.1Z"/></g></g></svg>