<svg width="130" height="130" viewBox="0 0 130 130" fill="none" xmlns="http://www.w3.org/2000/svg">
<path d="M18.6754 117.468C19.2103 124.054 25.038 129.278 32.2029 129.278H97.7971C104.962 129.278 110.79 124.054 111.325 117.468C121.769 116.576 130 107.831 130 97.1953V89.1728C130 78.57 121.825 69.8441 111.429 68.9037V51.5334C111.429 48.1349 111.02 44.8622 110.225 41.8487C108.331 33.9595 104.033 26.7144 97.7971 20.8947C90.896 14.5086 82.2677 10.414 72.8 8.9406V7.77444C72.8 3.48739 69.3011 0 65 0C60.6989 0 57.2 3.48739 57.2 7.77444V8.9406C38.8737 11.8468 23.9386 24.8745 19.786 41.808C18.98 44.8622 18.5714 48.1349 18.5714 51.5334V68.9037C8.17514 69.8441 0 78.57 0 89.1728V97.1953C0 107.831 8.23086 116.576 18.6754 117.468ZM107.714 116.505C107.714 121.507 103.265 125.576 97.7971 125.576H32.2029C26.7354 125.576 22.2857 121.507 22.2857 116.505V115.706V70.6585V66.3419H107.714V70.6622V115.706V116.505ZM126.286 89.1691V97.1916C126.286 105.755 119.775 112.826 111.429 113.747V72.6132C119.775 73.5388 126.286 80.6098 126.286 89.1691ZM60.9143 7.77444C60.9143 5.53096 62.7491 3.70211 65 3.70211C67.2509 3.70211 69.0857 5.53096 69.0857 7.77444V8.45192C68.9594 8.44082 68.8183 8.44452 68.6883 8.43712C66.2963 8.26312 63.7743 8.25942 61.3451 8.43712C61.204 8.44822 61.0517 8.44452 60.9143 8.45563V7.77444ZM23.3851 42.7187C27.3037 26.733 41.7337 14.5308 59.2986 12.3503C61.1149 12.1133 63.0797 11.9948 65.0297 11.9985C65.6351 11.9985 66.2146 12.0319 66.8014 12.0504C68.1497 12.1022 69.472 12.1874 70.694 12.3503C70.6977 12.3503 70.7089 12.3503 70.7126 12.3503C80.0614 13.4979 88.5523 17.3888 95.2603 23.601C100.962 28.9172 104.884 35.5255 106.619 42.7483C107.343 45.4953 107.707 48.4533 107.707 51.5334V62.6397H22.2783V51.5334C22.2857 48.4496 22.6534 45.4953 23.3851 42.7187ZM3.71429 89.1691C3.71429 80.6061 10.2254 73.5351 18.5714 72.6132V113.747C10.2254 112.822 3.71429 105.751 3.71429 97.1916V89.1691Z" fill="white"/>
<path d="M99.2593 90.2778H30.7408C29.7185 90.2778 28.8889 91.109 28.8889 92.1331V105.392C28.8889 112.193 34.4111 117.722 41.1963 117.722H88.8037C95.5889 117.722 101.111 112.19 101.111 105.392V92.1331C101.111 91.109 100.282 90.2778 99.2593 90.2778ZM97.4074 105.392C97.4074 110.145 93.5482 114.012 88.8037 114.012H41.1963C36.4519 114.012 32.5926 110.145 32.5926 105.392V93.9885H97.4074V105.392Z" fill="white"/>
<path d="M30.7408 57.0556H99.2593C100.282 57.0556 101.111 56.239 101.111 55.2328V52.1559C101.111 32.5571 84.9111 16.6111 65 16.6111C45.0889 16.6111 28.8889 32.5571 28.8889 52.1559V55.2328C28.8889 56.239 29.7185 57.0556 30.7408 57.0556ZM32.5926 52.1559C32.5926 34.5658 47.1297 20.2568 65 20.2568C82.8704 20.2568 97.4074 34.5658 97.4074 52.1559V53.41H32.5926V52.1559Z" fill="white"/>
<path d="M99.2593 75.4234H44.0741C43.3334 73.5523 41.5148 72.2222 39.3852 72.2222H34.2519C33.2297 72.2222 32.4 73.0522 32.4 74.0748V75.4234H30.7408C29.7185 75.4234 28.8889 76.2533 28.8889 77.2759C28.8889 78.2985 29.7185 79.1285 30.7408 79.1285H32.4V80.4808C32.4 81.5034 33.2297 82.3333 34.2519 82.3333H39.3852C41.5185 82.3333 43.3334 81.0032 44.0741 79.1285H99.2593C100.282 79.1285 101.111 78.2985 101.111 77.2759C101.111 76.2533 100.282 75.4234 99.2593 75.4234ZM39.3815 78.6283H36.1V75.9273H39.3815C40.126 75.9273 40.7297 76.5349 40.7297 77.2759C40.7334 78.0244 40.126 78.6283 39.3815 78.6283Z" fill="white"/>
</svg>
