<svg width="132" height="132" viewBox="0 0 132 132" fill="none" xmlns="http://www.w3.org/2000/svg">
<path d="M1.13371 104.424L11.3851 129.837L11.3926 129.849C11.5189 130.153 11.738 130.395 11.9943 130.595C12.0574 130.643 12.1131 130.681 12.18 130.718C12.4549 130.881 12.7631 131 13.1086 131H35.0006C39.064 131 43.0383 129.355 45.9094 126.483L51.5329 120.86C56.1014 116.295 63.53 116.295 68.0948 120.856L68.7151 121.48C74.7211 127.49 84.512 127.497 90.5329 121.48C95.0977 116.915 102.526 116.912 107.099 121.48L112.102 126.483C114.969 129.355 118.947 131 123.011 131H129.143C130.168 131 131 130.168 131 129.143C131 128.118 130.168 127.286 129.143 127.286H123.003C119.92 127.286 116.901 126.038 114.724 123.857L109.721 118.854C106.809 115.939 102.935 114.334 98.8083 114.334C94.6891 114.334 90.8151 115.939 87.8994 118.854C83.3309 123.419 75.9023 123.419 71.3374 118.858L70.7171 118.234C64.7 112.213 54.9091 112.221 48.8994 118.234L43.276 123.857C41.0957 126.038 38.0797 127.286 34.9969 127.286H15.8571L25.0797 104.424C25.0909 104.395 25.0834 104.361 25.0909 104.331C25.1577 104.142 25.2134 103.945 25.2134 103.73V19.6717C25.2134 19.4749 25.1577 19.2929 25.102 19.1146C25.1391 18.9289 25.2134 18.7543 25.2134 18.5574V13.1086C25.2134 6.434 19.7831 1 13.1049 1C6.42657 1 1 6.43029 1 13.1086V18.5574C1 18.7543 1.07429 18.9251 1.11143 19.1146C1.05572 19.2929 1 19.4749 1 19.6717V103.73C1 103.941 1.05571 104.142 1.12257 104.331C1.13 104.361 1.12257 104.395 1.13371 104.424ZM21.5029 21.5289V101.873H14.9657V21.5289H21.5029ZM11.2514 101.873H4.71429V21.5289H11.2514V101.873ZM13.1086 124.181L5.60943 105.591H20.604L13.1086 124.181ZM4.71429 13.1086C4.71429 8.48057 8.48057 4.71429 13.1086 4.71429C17.7366 4.71429 21.5029 8.48057 21.5029 13.1086V17.8146H4.71429V13.1086Z" fill="white" stroke="#F6F6F4"/>
<path d="M76.7778 105H84.1111C95.2284 105 104.278 95.8934 104.278 84.6975V44.0926C104.278 41.0398 101.81 38.5556 98.7777 38.5556H62.1111C59.0788 38.5556 56.6111 41.0398 56.6111 44.0926V84.6975C56.6111 95.8897 65.6604 105 76.7778 105ZM60.2778 44.0926C60.2778 43.0738 61.1028 42.2469 62.1111 42.2469H98.7777C99.7861 42.2469 100.611 43.0738 100.611 44.0926V82.8519H60.2778V44.0926ZM100.512 86.5432C99.5954 94.8377 92.5921 101.309 84.1111 101.309H76.7778C68.2968 101.309 61.2934 94.8377 60.3768 86.5432H100.512Z" fill="white" stroke="#F6F6F4"/>
</svg>
