<svg xmlns="http://www.w3.org/2000/svg" viewBox="0 0 302.52 104.68"><defs><style>.cls-1{fill:#fff;}</style></defs><g id="Livello_2" data-name="Livello 2"><g id="Livello_1-2" data-name="Livello 1"><path class="cls-1" d="M93.55,58.92c0,12.5-9.1,22.12-27.88,22.12H35.31V73.61l31.07,0C76.89,73.58,83,67.93,83,59.76c0-7.58-4.25-11.91-15-16.12C55,39,47,32.1,47,20.68A20.6,20.6,0,0,1,50.56,8.9H35.31V81H24.92V8.9H10.27V81H0V0H87.73l-.21,11.18A31.3,31.3,0,0,0,72.4,7.33c-10.86,0-15,6.62-15,12.15,0,7.57,4.84,11.3,15.83,15.63C86.69,40.4,93.55,47,93.55,58.92Z"/><path class="cls-1" d="M118.44,55.54,110,81H99.11L126.77.16h12.69L167.24,81H156l-8.7-25.41Zm26.69-8.15-8-23.25c-1.81-5.28-3-10.07-4.23-14.75h-.24c-1.21,4.8-2.53,9.71-4.1,14.63l-8,23.37Z"/><path class="cls-1" d="M178.47,41.88c0-7.44-.24-13.43-.48-18.94h9.54l.49,10h.24c4.35-7.08,11.23-11.27,20.77-11.27,14.14,0,24.77,11.87,24.77,29.49,0,20.85-12.89,30.09-26.67,30.09-7.73,0-14.4-2.29-17.91-8H189v31.52H178.47ZM189,57.34a22.79,22.79,0,0,0,.49,4.31,16.18,16.18,0,0,0,15.94,12.13c11.23,0,17.76-8.89,17.76-22.19C223.17,40,217,30,205.77,30c-7.25,0-14,5.15-16.06,13.06a16.7,16.7,0,0,0-.73,4.32Z"/><path class="cls-1" d="M247.2,41.88c0-7.44-.24-13.43-.48-18.94h9.54l.48,10H257c4.35-7.08,11.24-11.27,20.78-11.27,14.13,0,24.76,11.87,24.76,29.49C302.52,72,289.72,81.2,276,81.2c-7.73,0-14.5-2.29-18-8h-.24v31.52H247.2Zm10.51,15.46a23.67,23.67,0,0,0,.48,4.31,16.2,16.2,0,0,0,15.95,12.13c11.23,0,17.75-8.89,17.75-22.19C291.89,40,285.73,30,274.5,30c-7.25,0-14,5.15-16.07,13.06a17.13,17.13,0,0,0-.72,4.32Z"/></g></g></svg>