<svg width="82" height="79" viewBox="0 0 82 79" fill="none" xmlns="http://www.w3.org/2000/svg">
<g id="COORDINATORI LOGO">
<path id="Vector" d="M1.08229 62.259L7.39086 77.3114L7.39543 77.318C7.47314 77.4984 7.608 77.6414 7.76571 77.7602C7.80457 77.7888 7.83886 77.8108 7.88 77.8328C8.04914 77.9296 8.23886 78 8.45143 78H21.9234C24.424 78 26.8697 77.0254 28.6366 75.3248L32.0971 71.994C34.9086 69.2902 39.48 69.2902 42.2891 71.9918L42.6709 72.3614C46.3669 75.921 52.392 75.9254 56.0971 72.3614C58.9063 69.6576 63.4777 69.6554 66.2914 72.3614L69.3703 75.3248C71.1349 77.0254 73.5829 78 76.0834 78H79.8571C80.488 78 81 77.5072 81 76.9C81 76.2928 80.488 75.8 79.8571 75.8H76.0789C74.1817 75.8 72.3234 75.0608 70.984 73.7694L67.9051 70.806C66.1131 69.079 63.7291 68.1286 61.1897 68.1286C58.6549 68.1286 56.2709 69.079 54.4766 70.806C51.6651 73.5098 47.0937 73.5098 44.2846 70.8082L43.9029 70.4386C40.2 66.8724 34.1749 66.8768 30.4766 70.4386L27.016 73.7694C25.6743 75.0608 23.8183 75.8 21.9211 75.8H10.1429L15.8183 62.259C15.8251 62.2414 15.8206 62.2216 15.8251 62.204C15.8663 62.0918 15.9006 61.9752 15.9006 61.8476V12.0594C15.9006 11.9428 15.8663 11.835 15.832 11.7294C15.8549 11.6194 15.9006 11.516 15.9006 11.3994V8.172C15.9006 4.2186 12.5589 1 8.44914 1C4.33943 1 1 4.2164 1 8.172V11.3994C1 11.516 1.04571 11.6172 1.06857 11.7294C1.03429 11.835 1 11.9428 1 12.0594V61.8476C1 61.973 1.03429 62.0918 1.07543 62.204C1.08 62.2216 1.07543 62.2414 1.08229 62.259ZM13.6171 13.1594V60.7476H9.59429V13.1594H13.6171ZM7.30857 60.7476H3.28571V13.1594H7.30857V60.7476ZM8.45143 73.9608L3.83657 62.9498H13.064L8.45143 73.9608ZM3.28571 8.172C3.28571 5.4308 5.60343 3.2 8.45143 3.2C11.2994 3.2 13.6171 5.4308 13.6171 8.172V10.9594H3.28571V8.172Z" fill="#3f61ab" stroke="#3f61ab"/>
<path id="Vector_2" d="M47.6325 62.6001H52.1453C58.9867 62.6001 64.5556 57.2062 64.5556 50.5748V26.5241C64.5556 24.716 63.037 23.2445 61.1709 23.2445H38.6068C36.7408 23.2445 35.2222 24.716 35.2222 26.5241V50.5748C35.2222 57.204 40.791 62.6001 47.6325 62.6001ZM37.4786 26.5241C37.4786 25.9207 37.9863 25.4309 38.6068 25.4309H61.1709C61.7915 25.4309 62.2992 25.9207 62.2992 26.5241V49.4815H37.4786V26.5241ZM62.2382 51.668C61.6741 56.5808 57.3644 60.4136 52.1453 60.4136H47.6325C42.4134 60.4136 38.1037 56.5808 37.5396 51.668H62.2382Z" fill="#3f61ab" stroke="#3f61ab"/>
</g>
</svg>
