<svg xmlns="http://www.w3.org/2000/svg" viewBox="0 0 102.74 94.47"><defs><style>.cls-1,.cls-3{fill:#8BCEEC;}.cls-2{fill:#fff;}.cls-3{stroke:#fff;stroke-miterlimit:10;}</style></defs><g id="Livello_2" data-name="Livello 2"><g id="Livello_1-2" data-name="Livello 1"><path class="cls-1" d="M67.71,0H35A35,35,0,0,0,0,35V59.45a35,35,0,0,0,35,35H67.71a35,35,0,0,0,35-35V35A35,35,0,0,0,67.71,0ZM66.25,79.9H34.17V21.75H22.63V79.9H14.55V14.58H83.61l-.16,9a24.23,24.23,0,0,0-11.9-3.1c-8.55,0-11.81,5.34-11.81,9.79,0,6.1,3.81,9.11,12.46,12.61,10.59,4.26,16,9.59,16,19.19C88.2,72.15,81,79.9,66.25,79.9Z"/><path class="cls-2" d="M72.2,42.88c-8.65-3.5-12.46-6.51-12.46-12.61,0-4.45,3.26-9.79,11.81-9.79a24.23,24.23,0,0,1,11.9,3.1l.16-9H14.55V79.9h8.08V21.75H34.17V79.9H66.25c14.78,0,22-7.75,22-17.83C88.2,52.47,82.79,47.14,72.2,42.88Zm-5.39,31-24.46,0V21.75h12a16.89,16.89,0,0,0-2.79,9.49c0,9.2,6.32,14.74,16.55,18.51,8.46,3.39,11.8,6.88,11.8,13C79.91,69.33,75.08,73.89,66.81,73.89Z"/><path class="cls-3" d="M79.91,62.75c0,6.58-4.83,11.14-13.1,11.14l-24.46,0V21.75h12a16.89,16.89,0,0,0-2.79,9.49c0,9.2,6.32,14.74,16.55,18.51C76.57,53.14,79.91,56.63,79.91,62.75Z"/></g></g></svg>