<svg width="71" height="72" viewBox="0 0 71 72" fill="none" xmlns="http://www.w3.org/2000/svg">
<path id="Vector" d="M69.0143 39.8873H55.9575C55.4844 32.1726 49.6135 25.9293 42.124 24.9989C45.8303 22.7327 48.3241 18.6258 48.3241 13.9318C48.3241 6.80205 42.5952 1 35.5532 1C28.5113 1 22.7843 6.80205 22.7843 13.9318C22.7843 18.6278 25.2762 22.7327 28.9825 24.9989C21.493 25.9293 15.6221 32.1746 15.1489 39.8873H1.98571C1.4416 39.8873 1 40.3346 1 40.8856V51.1999C1 51.751 1.4416 52.1982 1.98571 52.1982H7.57077V70.0017C7.57077 70.5528 8.01237 71 8.55649 71H62.4435C62.9876 71 63.4292 70.5528 63.4292 70.0017V52.1982H69.0143C69.5584 52.1982 70 51.751 70 51.1999V40.8856C70 40.3346 69.5584 39.8873 69.0143 39.8873ZM24.7577 13.9318C24.7577 7.90217 29.6015 2.99658 35.5552 2.99658C41.5109 2.99658 46.3547 7.90217 46.3547 13.9318C46.3547 19.9615 41.5109 24.8671 35.5552 24.8671C29.6015 24.8671 24.7577 19.9615 24.7577 13.9318ZM30.9184 26.8637H40.192C47.4942 26.8637 53.4952 32.6198 54.0019 39.8873H17.1066C17.6132 32.6198 23.6143 26.8637 30.9184 26.8637ZM61.4578 69.0034H9.5422V52.1982H61.4578V69.0034ZM68.0286 50.2017H62.4435H8.55649H2.97143V41.8839H16.0854H55.0211H68.0286V50.2017Z" fill="#447890" stroke="#447890"/>
</svg>
